<svg xmlns="http://www.w3.org/2000/svg" viewBox="0 0 512 512">
  <defs>
    <linearGradient id="metal" x1="10%" y1="0%" x2="90%" y2="100%">
      <stop offset="0%"   stop-color="#686868"/>
      <stop offset="18%"  stop-color="#464646"/>
      <stop offset="42%"  stop-color="#2c2c2c"/>
      <stop offset="68%"  stop-color="#1a1a1a"/>
      <stop offset="100%" stop-color="#0a0a0a"/>
    </linearGradient>
    <linearGradient id="specular" x1="0%" y1="0%" x2="100%" y2="100%">
      <stop offset="0%"   stop-color="rgba(255,255,255,0.22)"/>
      <stop offset="45%"  stop-color="rgba(255,255,255,0.03)"/>
      <stop offset="100%" stop-color="rgba(0,0,0,0.18)"/>
    </linearGradient>
    <radialGradient id="innerField" cx="40%" cy="35%" r="65%">
      <stop offset="0%"   stop-color="#181818"/>
      <stop offset="65%"  stop-color="#0b0b0b"/>
      <stop offset="100%" stop-color="#030303"/>
    </radialGradient>
    <radialGradient id="inset" cx="50%" cy="50%" r="50%">
      <stop offset="72%"  stop-color="rgba(0,0,0,0)"/>
      <stop offset="88%"  stop-color="rgba(0,0,0,0.55)"/>
      <stop offset="100%" stop-color="rgba(0,0,0,0.85)"/>
    </radialGradient>
    <radialGradient id="ballBg" cx="38%" cy="32%" r="66%">
      <stop offset="0%"   stop-color="#1c1c1c"/>
      <stop offset="100%" stop-color="#050505"/>
    </radialGradient>
    <radialGradient id="blueGlow" cx="50%" cy="95%" r="55%">
      <stop offset="0%"   stop-color="#0d2d4a" stop-opacity="0.9"/>
      <stop offset="100%" stop-color="#000000" stop-opacity="0"/>
    </radialGradient>
    <path id="arcTop" d="M 94,256 A 162,162 0 0,1 418,256"/>
    <path id="arcBot" d="M 126,285 A 136,136 0 0,0 386,285"/>
    <filter id="shadow" x="-12%" y="-12%" width="124%" height="136%">
      <feDropShadow dx="0" dy="8" stdDeviation="18" flood-color="#000" flood-opacity="0.9"/>
    </filter>
    <filter id="nodeGlow">
      <feGaussianBlur stdDeviation="1.5" result="blur"/>
      <feMerge><feMergeNode in="blur"/><feMergeNode in="SourceGraphic"/></feMerge>
    </filter>
  </defs>
  <circle cx="256" cy="256" r="256" fill="#000"/>
  <polygon points="174,26 338,26 486,174 486,338 338,486 174,486 26,338 26,174" fill="url(#metal)" filter="url(#shadow)"/>
  <polygon points="174,26 338,26 486,174 486,338 338,486 174,486 26,338 26,174" fill="url(#specular)"/>
  <polyline points="26,174 174,26 338,26 486,174" fill="none" stroke="rgba(255,255,255,0.28)" stroke-width="2.5" stroke-linejoin="round"/>
  <polyline points="486,338 338,486 174,486 26,338" fill="none" stroke="rgba(0,0,0,0.65)" stroke-width="3" stroke-linejoin="round"/>
  <circle cx="256" cy="256" r="200" fill="none" stroke="#080808" stroke-width="5"/>
  <circle cx="256" cy="256" r="203" fill="none" stroke="rgba(255,255,255,0.06)" stroke-width="1"/>
  <circle cx="256" cy="256" r="197" fill="none" stroke="#353535" stroke-width="2"/>
  <circle cx="256" cy="256" r="195" fill="url(#innerField)"/>
  <line x1="150" y1="80"  x2="362" y2="80"  stroke="#242424" stroke-width="1"/>
  <line x1="150" y1="432" x2="362" y2="432" stroke="#242424" stroke-width="1"/>
  <rect x="251.5" y="75.5"  width="9" height="9" fill="#242424" transform="rotate(45,256,80)"/>
  <rect x="251.5" y="427.5" width="9" height="9" fill="#242424" transform="rotate(45,256,432)"/>
  <circle cx="256" cy="256" r="154" fill="#050505" stroke="#1a1a1a" stroke-width="2"/>
  <circle cx="256" cy="256" r="154" fill="url(#inset)"/>
  <circle cx="256" cy="256" r="154" fill="url(#blueGlow)"/>
  <g transform="translate(256,256)">
    <circle r="74" fill="url(#ballBg)" stroke="#1c1c1c" stroke-width="1.5"/>
    <ellipse cx="-14" cy="-18" rx="24" ry="17" fill="rgba(255,255,255,0.035)" transform="rotate(-20)"/>
    <polygon points="0,-35 21,-11 13,15 -13,15 -21,-11" fill="#0c0c0c" stroke="#262626" stroke-width="1.6"/>
    <polygon points="21,-11 42,-22 52,2 36,24 14,19 13,15" fill="#0d0d0d" stroke="#202020" stroke-width="1"/>
    <polygon points="36,24 56,16 64,38 50,56 28,52 14,19" fill="#0d0d0d" stroke="#202020" stroke-width="1"/>
    <polygon points="13,15 28,52 14,68 -6,68 -20,54 -13,15" fill="#0d0d0d" stroke="#202020" stroke-width="1"/>
    <polygon points="-13,15 -20,54 -42,52 -56,30 -46,10 -21,-11" fill="#0d0d0d" stroke="#202020" stroke-width="1"/>
    <polygon points="-21,-11 -46,10 -56,-14 -42,-36 -18,-40 0,-35" fill="#0d0d0d" stroke="#202020" stroke-width="1"/>
    <g filter="url(#nodeGlow)">
      <circle cx="0"   cy="-35" r="3.5" fill="#1e3830"/>
      <circle cx="21"  cy="-11" r="3"   fill="#1a3028"/>
      <circle cx="13"  cy="15"  r="3"   fill="#1a3028"/>
      <circle cx="-13" cy="15"  r="3"   fill="#1a3028"/>
      <circle cx="-21" cy="-11" r="3"   fill="#1a3028"/>
    </g>
    <g stroke="#162820" stroke-width="1" opacity="0.9">
      <line x1="0"   y1="-35" x2="0"   y2="-25"/>
      <line x1="21"  y1="-11" x2="15"  y2="-6"/>
      <line x1="13"  y1="15"  x2="9"   y2="22"/>
      <line x1="-13" y1="15"  x2="-9"  y2="22"/>
      <line x1="-21" y1="-11" x2="-15" y2="-6"/>
    </g>
    <g fill="#111" stroke="#2c2c2c" stroke-width="1.5">
      <circle cx="0"   cy="-85" r="9"/>
      <circle cx="74"  cy="-43" r="7.5"/>
      <circle cx="74"  cy="43"  r="7.5"/>
      <circle cx="0"   cy="85"  r="9"/>
      <circle cx="-74" cy="43"  r="7.5"/>
      <circle cx="-74" cy="-43" r="7.5"/>
    </g>
    <g fill="#1e1e1e">
      <circle cx="0"   cy="-85" r="3.5"/>
      <circle cx="74"  cy="-43" r="3"/>
      <circle cx="74"  cy="43"  r="3"/>
      <circle cx="0"   cy="85"  r="3.5"/>
      <circle cx="-74" cy="43"  r="3"/>
      <circle cx="-74" cy="-43" r="3"/>
    </g>
    <g stroke="#2c2c2c" stroke-width="1.2" stroke-linecap="round">
      <line x1="0"  y1="-94" x2="0"  y2="-91"/>
      <line x1="9"  y1="-84" x2="7"  y2="-88"/>
      <line x1="-9" y1="-84" x2="-7" y2="-88"/>
      <line x1="0"  y1="-76" x2="0"  y2="-79"/>
    </g>
  </g>
  <g fill="#161616" stroke="#363636" stroke-width="1.5">
    <circle cx="256" cy="36"  r="6.5"/>
    <circle cx="256" cy="476" r="6.5"/>
    <circle cx="36"  cy="256" r="6.5"/>
    <circle cx="476" cy="256" r="6.5"/>
    <circle cx="166" cy="52"  r="5"/>
    <circle cx="346" cy="52"  r="5"/>
    <circle cx="166" cy="460" r="5"/>
    <circle cx="346" cy="460" r="5"/>
  </g>
  <g fill="#262626">
    <circle cx="256" cy="36"  r="2.5"/>
    <circle cx="256" cy="476" r="2.5"/>
    <circle cx="36"  cy="256" r="2.5"/>
    <circle cx="476" cy="256" r="2.5"/>
  </g>
  <text fill="#d0d0d0" font-family="'Arial Narrow','Arial Black',Arial,sans-serif" font-size="44" font-weight="900" font-style="italic" letter-spacing="7">
    <textPath href="#arcTop" startOffset="20%">FC 26</textPath>
  </text>
  <text fill="#545454" font-family="'Arial Narrow',Arial,sans-serif" font-size="24" font-weight="700" letter-spacing="12">
    <textPath href="#arcBot" startOffset="16%">ARENA</textPath>
  </text>
</svg>
